# xmcd
#
# Track frame offsets: 
#        182
#        11982
#        28415
#        38970
#        51435
#        67767
#        84757
#        95035
#        109815
#        125147
#        136260
#        147235
#        164167
#        177087
#
# Disc length: 2533 seconds
#
# Revision: 1
# Processed by: cddbd v1.5.2PL0 Copyright (c) Steve Scherf et al.
# Submitted via: ExactAudioCopyFreeDBPlugin 1.0
#
DISCID=cc09e30e
DTITLE=Tommy Beaumont - Caribbean Christmas (1991)
DYEAR=1991
DGENRE=Christmas
TTITLE0=Deck the Halls
TTITLE1=God Rest Ye Merry Gentlemen
TTITLE2=Hark, The Herald Angels Sing
TTITLE3=Silent Night
TTITLE4=Joy to the World
TTITLE5=Little Drummer Boy
TTITLE6=Carol of the Bells
TTITLE7=Silver Bells
TTITLE8=We Three Kings
TTITLE9=O Little Town of Bethlehem
TTITLE10=Good King Wenceslas
TTITLE11=What Child Is This
TTITLE12=Jingle Bells
TTITLE13=Jesu, Joy of Man's Desiring
EXTD=
EXTT0=
EXTT1=
EXTT2=
EXTT3=
EXTT4=
EXTT5=
EXTT6=
EXTT7=
EXTT8=
EXTT9=
EXTT10=
EXTT11=
EXTT12=
EXTT13=
PLAYORDER=
